Coordinates
version=1
nRows=27
nColumns=12
inDegrees=yes

Units are S.I. units (second, meters, Newtons, ...)
Angles are in degrees

endheader
time	SC_y	SC_z	SC_x	AC_y	AC_z	AC_x	GH_y	GH_z	GH_yy	EL_x	PS_y
       0.0              -11.31           13.9           47.8          49.96         -13.61          13.34           75.2        -0.5625          106.8          116.2          128.4
   0.02028              -11.32          13.91          47.79          49.96         -13.61          13.34          75.19        -0.5513          106.7          116.2          128.4
   0.04055              -11.32          13.91          47.79          49.96         -13.61          13.33          75.17        -0.5393          106.7          116.2          128.4
   0.06083              -11.33          13.91          47.78          49.96          -13.6          13.33          75.16        -0.5266          106.7          116.2          128.4
   0.08111              -11.33          13.92          47.78          49.96          -13.6          13.32          75.15        -0.5131          106.7          116.1          128.4
    0.1014              -11.34          13.92          47.77          49.95         -13.59          13.32          75.13        -0.4986          106.7          116.1          128.4
    0.1217              -11.34          13.93          47.77          49.95         -13.59          13.31          75.12        -0.4832          106.7          116.1          128.4
    0.1419              -11.35          13.93          47.76          49.95         -13.58          13.31           75.1        -0.4668          106.7          116.1          128.4
    0.1622              -11.36          13.94          47.76          49.94         -13.58           13.3          75.08        -0.4491          106.7          116.1          128.4
    0.1825              -11.36          13.94          47.75          49.94         -13.57           13.3          75.07        -0.4302          106.7          116.1          128.4
    0.2028              -11.37          13.95          47.74          49.94         -13.57          13.29          75.05        -0.4099          106.6          116.1          128.4
     0.223              -11.38          13.96          47.73          49.93         -13.56          13.28          75.02         -0.388          106.6          116.1          128.4
    0.2433              -11.39          13.96          47.73          49.93         -13.55          13.27           75.0        -0.3644          106.6          116.1          128.4
    0.2636               -11.4          13.97          47.72          49.93         -13.55          13.26          74.97        -0.3389          106.6          116.1          128.4
    0.2839              -11.41          13.98          47.71          49.92         -13.54          13.26          74.95        -0.3113          106.6          116.1          128.4
    0.3042              -11.42          13.99           47.7          49.92         -13.53          13.25          74.92        -0.2814          106.5          116.1          128.4
    0.3244              -11.43           14.0          47.69          49.91         -13.52          13.23          74.89        -0.2489          106.5          116.1          128.4
    0.3447              -11.44          14.01          47.67           49.9         -13.51          13.22          74.85        -0.2135          106.5          116.1          128.4
     0.365              -11.46          14.02          47.66           49.9          -13.5          13.21          74.81        -0.1749          106.5          116.1          128.4
    0.3853              -11.47          14.04          47.64          49.89         -13.48          13.19          74.77        -0.1325          106.4          116.1          128.4
    0.4055              -11.49          14.05          47.63          49.88         -13.47          13.18          74.72       -0.08608          106.4          116.1          128.4
    0.4258              -11.51          14.07          47.61          49.87         -13.45          13.16          74.67       -0.03492          106.3          116.1          128.4
    0.4461              -11.53          14.08          47.59          49.86         -13.44          13.14          74.62        0.02158          106.3          116.0          128.4
    0.4664              -11.55           14.1          47.57          49.85         -13.42          13.12          74.55        0.08417          106.3          116.0          128.4
    0.4867              -11.58          14.13          47.54          49.84          -13.4           13.1          74.48         0.1538          106.2          116.0          128.4
    0.5069              -11.61          14.15          47.52          49.83         -13.37          13.07          74.41         0.2314          106.1          116.0          128.4
    0.5272              -11.64          14.18          47.49          49.81         -13.35          13.04          74.32         0.3184          106.1          116.0          128.5
